<?xml version="1.0" encoding="UTF-8" standalone="no"?>
<!DOCTYPE svg PUBLIC "-//W3C//DTD SVG 1.1//EN"
 "http://www.w3.org/Graphics/SVG/1.1/DTD/svg11.dtd">
<!-- Generated by graphviz version 2.38.0 (20140413.2041)
 -->
<!-- Title: controllers_diagram Pages: 1 -->
<svg width="843pt" height="727pt"
 viewBox="0.00 0.00 843.00 727.00" xmlns="http://www.w3.org/2000/svg" xmlns:xlink="http://www.w3.org/1999/xlink">
<g id="graph0" class="graph" transform="scale(1 1) rotate(0) translate(289 438)">
<title>controllers_diagram</title>
<polygon fill="none" stroke="none" points="-289,289 -289,-438 554,-438 554,289 -289,289"/>
<!-- _diagram_info -->
<g id="node1" class="node"><title>_diagram_info</title>
<text text-anchor="start" x="350" y="-196.6" font-family="Times,serif" font-size="13.00">Controllers diagram</text>
<text text-anchor="start" x="350" y="-182.6" font-family="Times,serif" font-size="13.00">Date: Sep 06 2015 &#45; 13:57</text>
<text text-anchor="start" x="350" y="-168.6" font-family="Times,serif" font-size="13.00">Migration version: 20150508092603</text>
<text text-anchor="start" x="350" y="-154.6" font-family="Times,serif" font-size="13.00">Generated by RailRoady 1.3.1</text>
<text text-anchor="start" x="350" y="-140.6" font-family="Times,serif" font-size="13.00">http://railroady.prestonlee.com</text>
</g>
<!-- ApplicationController -->
<g id="node2" class="node"><title>ApplicationController</title>
<path fill="none" stroke="black" d="M278,18C278,18 452,18 452,18 458,18 464,12 464,6 464,6 464,-92 464,-92 464,-98 458,-104 452,-104 452,-104 278,-104 278,-104 272,-104 266,-98 266,-92 266,-92 266,6 266,6 266,12 272,18 278,18"/>
<text text-anchor="middle" x="365" y="-88.8" font-family="Times,serif" font-size="14.00">ApplicationController</text>
<polyline fill="none" stroke="black" points="266,-81 464,-81 "/>
<text text-anchor="start" x="274" y="-65.8" font-family="Times,serif" font-size="14.00">after_sign_in_path_for</text>
<text text-anchor="start" x="274" y="-50.8" font-family="Times,serif" font-size="14.00">user_not_authorized</text>
<polyline fill="none" stroke="black" points="266,-43 464,-43 "/>
<text text-anchor="start" x="274" y="-27.8" font-family="Times,serif" font-size="14.00">configure_permitted_parameters</text>
<text text-anchor="start" x="274" y="-12.8" font-family="Times,serif" font-size="14.00">set_mixpanel_user</text>
<polyline fill="none" stroke="black" points="266,-5 464,-5 "/>
<text text-anchor="start" x="274" y="10.2" font-family="Times,serif" font-size="14.00">_layout</text>
</g>
<!-- CompaniesController -->
<g id="node3" class="node"><title>CompaniesController</title>
<path fill="none" stroke="black" d="M-63.5,-152.5C-63.5,-152.5 49.5,-152.5 49.5,-152.5 55.5,-152.5 61.5,-158.5 61.5,-164.5 61.5,-164.5 61.5,-353.5 61.5,-353.5 61.5,-359.5 55.5,-365.5 49.5,-365.5 49.5,-365.5 -63.5,-365.5 -63.5,-365.5 -69.5,-365.5 -75.5,-359.5 -75.5,-353.5 -75.5,-353.5 -75.5,-164.5 -75.5,-164.5 -75.5,-158.5 -69.5,-152.5 -63.5,-152.5"/>
<text text-anchor="middle" x="-7" y="-350.3" font-family="Times,serif" font-size="14.00">CompaniesController</text>
<polyline fill="none" stroke="black" points="-75.5,-342.5 61.5,-342.5 "/>
<text text-anchor="start" x="-67.5" y="-327.3" font-family="Times,serif" font-size="14.00">create</text>
<text text-anchor="start" x="-67.5" y="-312.3" font-family="Times,serif" font-size="14.00">destroy</text>
<text text-anchor="start" x="-67.5" y="-297.3" font-family="Times,serif" font-size="14.00">edit</text>
<text text-anchor="start" x="-67.5" y="-282.3" font-family="Times,serif" font-size="14.00">index</text>
<text text-anchor="start" x="-67.5" y="-267.3" font-family="Times,serif" font-size="14.00">new</text>
<text text-anchor="start" x="-67.5" y="-252.3" font-family="Times,serif" font-size="14.00">show</text>
<text text-anchor="start" x="-67.5" y="-237.3" font-family="Times,serif" font-size="14.00">update</text>
<polyline fill="none" stroke="black" points="-75.5,-229.5 61.5,-229.5 "/>
<polyline fill="none" stroke="black" points="-75.5,-205.5 61.5,-205.5 "/>
<text text-anchor="start" x="-67.5" y="-190.3" font-family="Times,serif" font-size="14.00">_layout</text>
<text text-anchor="start" x="-67.5" y="-175.3" font-family="Times,serif" font-size="14.00">company_params</text>
<text text-anchor="start" x="-67.5" y="-160.3" font-family="Times,serif" font-size="14.00">set_company</text>
</g>
<!-- CustomersController -->
<g id="node4" class="node"><title>CustomersController</title>
<path fill="none" stroke="black" d="M-273,284C-273,284 -163,284 -163,284 -157,284 -151,278 -151,272 -151,272 -151,158 -151,158 -151,152 -157,146 -163,146 -163,146 -273,146 -273,146 -279,146 -285,152 -285,158 -285,158 -285,272 -285,272 -285,278 -279,284 -273,284"/>
<text text-anchor="middle" x="-218" y="161.2" font-family="Times,serif" font-size="14.00">CustomersController</text>
<polyline fill="none" stroke="black" points="-285,169 -151,169 "/>
<text text-anchor="start" x="-277" y="184.2" font-family="Times,serif" font-size="14.00">callback</text>
<text text-anchor="start" x="-277" y="199.2" font-family="Times,serif" font-size="14.00">close</text>
<text text-anchor="start" x="-277" y="214.2" font-family="Times,serif" font-size="14.00">contact</text>
<polyline fill="none" stroke="black" points="-285,222 -151,222 "/>
<polyline fill="none" stroke="black" points="-285,246 -151,246 "/>
<text text-anchor="start" x="-277" y="261.2" font-family="Times,serif" font-size="14.00">_layout</text>
<text text-anchor="start" x="-277" y="276.2" font-family="Times,serif" font-size="14.00">customer_params</text>
</g>
<!-- DocumentsController -->
<g id="node5" class="node"><title>DocumentsController</title>
<path fill="none" stroke="black" d="M107,94.5C107,94.5 221,94.5 221,94.5 227,94.5 233,88.5 233,82.5 233,82.5 233,-136.5 233,-136.5 233,-142.5 227,-148.5 221,-148.5 221,-148.5 107,-148.5 107,-148.5 101,-148.5 95,-142.5 95,-136.5 95,-136.5 95,82.5 95,82.5 95,88.5 101,94.5 107,94.5"/>
<text text-anchor="middle" x="164" y="-133.3" font-family="Times,serif" font-size="14.00">DocumentsController</text>
<polyline fill="none" stroke="black" points="95,-125.5 233,-125.5 "/>
<text text-anchor="start" x="103" y="-110.3" font-family="Times,serif" font-size="14.00">create</text>
<text text-anchor="start" x="103" y="-95.3" font-family="Times,serif" font-size="14.00">destroy</text>
<text text-anchor="start" x="103" y="-80.3" font-family="Times,serif" font-size="14.00">download</text>
<text text-anchor="start" x="103" y="-65.3" font-family="Times,serif" font-size="14.00">edit</text>
<text text-anchor="start" x="103" y="-50.3" font-family="Times,serif" font-size="14.00">index</text>
<text text-anchor="start" x="103" y="-35.3" font-family="Times,serif" font-size="14.00">new</text>
<text text-anchor="start" x="103" y="-20.3" font-family="Times,serif" font-size="14.00">update</text>
<polyline fill="none" stroke="black" points="95,-12.5 233,-12.5 "/>
<polyline fill="none" stroke="black" points="95,11.5 233,11.5 "/>
<text text-anchor="start" x="103" y="26.7" font-family="Times,serif" font-size="14.00">_layout</text>
<text text-anchor="start" x="103" y="41.7" font-family="Times,serif" font-size="14.00">disable_primary</text>
<text text-anchor="start" x="103" y="56.7" font-family="Times,serif" font-size="14.00">document_params</text>
<text text-anchor="start" x="103" y="71.7" font-family="Times,serif" font-size="14.00">set_document</text>
<text text-anchor="start" x="103" y="86.7" font-family="Times,serif" font-size="14.00">set_instruction</text>
</g>
<!-- InstructionsController -->
<g id="node6" class="node"><title>InstructionsController</title>
<path fill="none" stroke="black" d="M-216,113C-216,113 -100,113 -100,113 -94,113 -88,107 -88,101 -88,101 -88,-103 -88,-103 -88,-109 -94,-115 -100,-115 -100,-115 -216,-115 -216,-115 -222,-115 -228,-109 -228,-103 -228,-103 -228,101 -228,101 -228,107 -222,113 -216,113"/>
<text text-anchor="middle" x="-158" y="-99.8" font-family="Times,serif" font-size="14.00">InstructionsController</text>
<polyline fill="none" stroke="black" points="-228,-92 -88,-92 "/>
<text text-anchor="start" x="-220" y="-76.8" font-family="Times,serif" font-size="14.00">create</text>
<text text-anchor="start" x="-220" y="-61.8" font-family="Times,serif" font-size="14.00">destroy</text>
<text text-anchor="start" x="-220" y="-46.8" font-family="Times,serif" font-size="14.00">edit</text>
<text text-anchor="start" x="-220" y="-31.8" font-family="Times,serif" font-size="14.00">new</text>
<text text-anchor="start" x="-220" y="-16.8" font-family="Times,serif" font-size="14.00">primary</text>
<text text-anchor="start" x="-220" y="-1.8" font-family="Times,serif" font-size="14.00">show</text>
<text text-anchor="start" x="-220" y="13.2" font-family="Times,serif" font-size="14.00">update</text>
<polyline fill="none" stroke="black" points="-228,21 -88,21 "/>
<polyline fill="none" stroke="black" points="-228,45 -88,45 "/>
<text text-anchor="start" x="-220" y="60.2" font-family="Times,serif" font-size="14.00">_layout</text>
<text text-anchor="start" x="-220" y="75.2" font-family="Times,serif" font-size="14.00">instruction_params</text>
<text text-anchor="start" x="-220" y="90.2" font-family="Times,serif" font-size="14.00">set_instruction</text>
<text text-anchor="start" x="-220" y="105.2" font-family="Times,serif" font-size="14.00">set_product</text>
</g>
<!-- NotificationsController -->
<g id="node7" class="node"><title>NotificationsController</title>
<path fill="none" stroke="black" d="M278,265.5C278,265.5 400,265.5 400,265.5 406,265.5 412,259.5 412,253.5 412,253.5 412,64.5 412,64.5 412,58.5 406,52.5 400,52.5 400,52.5 278,52.5 278,52.5 272,52.5 266,58.5 266,64.5 266,64.5 266,253.5 266,253.5 266,259.5 272,265.5 278,265.5"/>
<text text-anchor="middle" x="339" y="67.7" font-family="Times,serif" font-size="14.00">NotificationsController</text>
<polyline fill="none" stroke="black" points="266,75.5 412,75.5 "/>
<text text-anchor="start" x="274" y="90.7" font-family="Times,serif" font-size="14.00">create</text>
<text text-anchor="start" x="274" y="105.7" font-family="Times,serif" font-size="14.00">destroy</text>
<text text-anchor="start" x="274" y="120.7" font-family="Times,serif" font-size="14.00">edit</text>
<text text-anchor="start" x="274" y="135.7" font-family="Times,serif" font-size="14.00">new</text>
<text text-anchor="start" x="274" y="150.7" font-family="Times,serif" font-size="14.00">show</text>
<text text-anchor="start" x="274" y="165.7" font-family="Times,serif" font-size="14.00">update</text>
<polyline fill="none" stroke="black" points="266,173.5 412,173.5 "/>
<polyline fill="none" stroke="black" points="266,197.5 412,197.5 "/>
<text text-anchor="start" x="274" y="212.7" font-family="Times,serif" font-size="14.00">_layout</text>
<text text-anchor="start" x="274" y="227.7" font-family="Times,serif" font-size="14.00">notification_params</text>
<text text-anchor="start" x="274" y="242.7" font-family="Times,serif" font-size="14.00">set_notification</text>
<text text-anchor="start" x="274" y="257.7" font-family="Times,serif" font-size="14.00">set_product</text>
</g>
<!-- OrdersController -->
<g id="node8" class="node"><title>OrdersController</title>
<path fill="none" stroke="black" d="M-45,151.5C-45,151.5 43,151.5 43,151.5 49,151.5 55,145.5 55,139.5 55,139.5 55,-109.5 55,-109.5 55,-115.5 49,-121.5 43,-121.5 43,-121.5 -45,-121.5 -45,-121.5 -51,-121.5 -57,-115.5 -57,-109.5 -57,-109.5 -57,139.5 -57,139.5 -57,145.5 -51,151.5 -45,151.5"/>
<text text-anchor="middle" x="-1" y="-106.3" font-family="Times,serif" font-size="14.00">OrdersController</text>
<polyline fill="none" stroke="black" points="-57,-98.5 55,-98.5 "/>
<text text-anchor="start" x="-49" y="-83.3" font-family="Times,serif" font-size="14.00">confirm</text>
<text text-anchor="start" x="-49" y="-68.3" font-family="Times,serif" font-size="14.00">create</text>
<text text-anchor="start" x="-49" y="-53.3" font-family="Times,serif" font-size="14.00">destroy</text>
<text text-anchor="start" x="-49" y="-38.3" font-family="Times,serif" font-size="14.00">edit</text>
<text text-anchor="start" x="-49" y="-23.3" font-family="Times,serif" font-size="14.00">index</text>
<text text-anchor="start" x="-49" y="-8.3" font-family="Times,serif" font-size="14.00">new</text>
<text text-anchor="start" x="-49" y="6.7" font-family="Times,serif" font-size="14.00">show</text>
<text text-anchor="start" x="-49" y="21.7" font-family="Times,serif" font-size="14.00">update</text>
<polyline fill="none" stroke="black" points="-57,29.5 55,29.5 "/>
<polyline fill="none" stroke="black" points="-57,53.5 55,53.5 "/>
<text text-anchor="start" x="-49" y="68.7" font-family="Times,serif" font-size="14.00">_layout</text>
<text text-anchor="start" x="-49" y="83.7" font-family="Times,serif" font-size="14.00">confirm_cancel</text>
<text text-anchor="start" x="-49" y="98.7" font-family="Times,serif" font-size="14.00">confirm_order</text>
<text text-anchor="start" x="-49" y="113.7" font-family="Times,serif" font-size="14.00">order_params</text>
<text text-anchor="start" x="-49" y="128.7" font-family="Times,serif" font-size="14.00">set_instruction</text>
<text text-anchor="start" x="-49" y="143.7" font-family="Times,serif" font-size="14.00">set_order</text>
</g>
<!-- ProductsController -->
<g id="node9" class="node"><title>ProductsController</title>
<path fill="none" stroke="black" d="M202.5,-190.5C202.5,-190.5 301.5,-190.5 301.5,-190.5 307.5,-190.5 313.5,-196.5 313.5,-202.5 313.5,-202.5 313.5,-421.5 313.5,-421.5 313.5,-427.5 307.5,-433.5 301.5,-433.5 301.5,-433.5 202.5,-433.5 202.5,-433.5 196.5,-433.5 190.5,-427.5 190.5,-421.5 190.5,-421.5 190.5,-202.5 190.5,-202.5 190.5,-196.5 196.5,-190.5 202.5,-190.5"/>
<text text-anchor="middle" x="252" y="-418.3" font-family="Times,serif" font-size="14.00">ProductsController</text>
<polyline fill="none" stroke="black" points="190.5,-410.5 313.5,-410.5 "/>
<text text-anchor="start" x="198.5" y="-395.3" font-family="Times,serif" font-size="14.00">create</text>
<text text-anchor="start" x="198.5" y="-380.3" font-family="Times,serif" font-size="14.00">destroy</text>
<text text-anchor="start" x="198.5" y="-365.3" font-family="Times,serif" font-size="14.00">download_qrcode</text>
<text text-anchor="start" x="198.5" y="-350.3" font-family="Times,serif" font-size="14.00">edit</text>
<text text-anchor="start" x="198.5" y="-335.3" font-family="Times,serif" font-size="14.00">new</text>
<text text-anchor="start" x="198.5" y="-320.3" font-family="Times,serif" font-size="14.00">show</text>
<text text-anchor="start" x="198.5" y="-305.3" font-family="Times,serif" font-size="14.00">update</text>
<polyline fill="none" stroke="black" points="190.5,-297.5 313.5,-297.5 "/>
<polyline fill="none" stroke="black" points="190.5,-273.5 313.5,-273.5 "/>
<text text-anchor="start" x="198.5" y="-258.3" font-family="Times,serif" font-size="14.00">_layout</text>
<text text-anchor="start" x="198.5" y="-243.3" font-family="Times,serif" font-size="14.00">generate_qrcode</text>
<text text-anchor="start" x="198.5" y="-228.3" font-family="Times,serif" font-size="14.00">product_params</text>
<text text-anchor="start" x="198.5" y="-213.3" font-family="Times,serif" font-size="14.00">set_company</text>
<text text-anchor="start" x="198.5" y="-198.3" font-family="Times,serif" font-size="14.00">set_product</text>
</g>
<!-- UsersController -->
<g id="node10" class="node"><title>UsersController</title>
<path fill="none" stroke="black" d="M-216,-229C-216,-229 -134,-229 -134,-229 -128,-229 -122,-235 -122,-241 -122,-241 -122,-415 -122,-415 -122,-421 -128,-427 -134,-427 -134,-427 -216,-427 -216,-427 -222,-427 -228,-421 -228,-415 -228,-415 -228,-241 -228,-241 -228,-235 -222,-229 -216,-229"/>
<text text-anchor="middle" x="-175" y="-411.8" font-family="Times,serif" font-size="14.00">UsersController</text>
<polyline fill="none" stroke="black" points="-228,-404 -122,-404 "/>
<text text-anchor="start" x="-220" y="-388.8" font-family="Times,serif" font-size="14.00">demote</text>
<text text-anchor="start" x="-220" y="-373.8" font-family="Times,serif" font-size="14.00">destroy</text>
<text text-anchor="start" x="-220" y="-358.8" font-family="Times,serif" font-size="14.00">edit</text>
<text text-anchor="start" x="-220" y="-343.8" font-family="Times,serif" font-size="14.00">promote</text>
<text text-anchor="start" x="-220" y="-328.8" font-family="Times,serif" font-size="14.00">show</text>
<text text-anchor="start" x="-220" y="-313.8" font-family="Times,serif" font-size="14.00">update</text>
<polyline fill="none" stroke="black" points="-228,-306 -122,-306 "/>
<polyline fill="none" stroke="black" points="-228,-282 -122,-282 "/>
<text text-anchor="start" x="-220" y="-266.8" font-family="Times,serif" font-size="14.00">_layout</text>
<text text-anchor="start" x="-220" y="-251.8" font-family="Times,serif" font-size="14.00">secure_params</text>
<text text-anchor="start" x="-220" y="-236.8" font-family="Times,serif" font-size="14.00">set_user</text>
</g>
<!-- VisitorsController -->
<g id="node11" class="node"><title>VisitorsController</title>
<path fill="none" stroke="black" d="M107,284.5C107,284.5 201,284.5 201,284.5 207,284.5 213,278.5 213,272.5 213,272.5 213,143.5 213,143.5 213,137.5 207,131.5 201,131.5 201,131.5 107,131.5 107,131.5 101,131.5 95,137.5 95,143.5 95,143.5 95,272.5 95,272.5 95,278.5 101,284.5 107,284.5"/>
<text text-anchor="middle" x="154" y="146.7" font-family="Times,serif" font-size="14.00">VisitorsController</text>
<polyline fill="none" stroke="black" points="95,154.5 213,154.5 "/>
<text text-anchor="start" x="103" y="169.7" font-family="Times,serif" font-size="14.00">about</text>
<text text-anchor="start" x="103" y="184.7" font-family="Times,serif" font-size="14.00">index</text>
<text text-anchor="start" x="103" y="199.7" font-family="Times,serif" font-size="14.00">search</text>
<text text-anchor="start" x="103" y="214.7" font-family="Times,serif" font-size="14.00">service</text>
<polyline fill="none" stroke="black" points="95,222.5 213,222.5 "/>
<polyline fill="none" stroke="black" points="95,246.5 213,246.5 "/>
<text text-anchor="start" x="103" y="261.7" font-family="Times,serif" font-size="14.00">_layout</text>
<text text-anchor="start" x="103" y="276.7" font-family="Times,serif" font-size="14.00">catch_not_found</text>
</g>
</g>
</svg>
