<?xml version="1.0" encoding="UTF-8" standalone="no"?>
<!DOCTYPE svg PUBLIC "-//W3C//DTD SVG 1.1//EN"
 "http://www.w3.org/Graphics/SVG/1.1/DTD/svg11.dtd">
<!-- Generated by graphviz version 2.38.0 (20140413.2041)
 -->
<!-- Title: models_diagram Pages: 1 -->
<svg width="454pt" height="374pt"
 viewBox="0.00 0.00 453.74 374.00" xmlns="http://www.w3.org/2000/svg" xmlns:xlink="http://www.w3.org/1999/xlink">
<g id="graph0" class="graph" transform="scale(1 1) rotate(0) translate(4 370)">
<title>models_diagram</title>
<polygon fill="none" stroke="none" points="-4,4 -4,-370 449.743,-370 449.743,4 -4,4"/>
<!-- _diagram_info -->
<g id="node1" class="node"><title>_diagram_info</title>
<text text-anchor="start" x="97.7958" y="-351.6" font-family="Times,serif" font-size="13.00">Models diagram</text>
<text text-anchor="start" x="97.7958" y="-337.6" font-family="Times,serif" font-size="13.00">Date: Sep 06 2015 &#45; 13:57</text>
<text text-anchor="start" x="97.7958" y="-323.6" font-family="Times,serif" font-size="13.00">Migration version: 20150508092603</text>
<text text-anchor="start" x="97.7958" y="-309.6" font-family="Times,serif" font-size="13.00">Generated by RailRoady 1.3.1</text>
<text text-anchor="start" x="97.7958" y="-295.6" font-family="Times,serif" font-size="13.00">http://railroady.prestonlee.com</text>
</g>
<!-- Company -->
<g id="node2" class="node"><title>Company</title>
<ellipse fill="none" stroke="black" cx="361.796" cy="-327" rx="46.2923" ry="18"/>
<text text-anchor="middle" x="361.796" y="-323.3" font-family="Times,serif" font-size="14.00">Company</text>
</g>
<!-- Order -->
<g id="node8" class="node"><title>Order</title>
<ellipse fill="none" stroke="black" cx="220.796" cy="-18" rx="31.6951" ry="18"/>
<text text-anchor="middle" x="220.796" y="-14.3" font-family="Times,serif" font-size="14.00">Order</text>
</g>
<!-- Company&#45;&gt;Order -->
<g id="edge3" class="edge"><title>Company&#45;&gt;Order</title>
<path fill="none" stroke="#e4371d" d="M364.012,-299.012C366.682,-249.261 365.685,-141.803 315.796,-72 301.828,-52.4575 278.29,-39.2511 258.139,-30.9087"/>
<polygon fill="#e4371d" stroke="#e4371d" points="364.012,-299.014 358.892,-308.711 363.698,-304.004 363.383,-308.994 363.383,-308.994 363.383,-308.994 363.698,-304.004 367.875,-309.277 364.012,-299.014 364.012,-299.014"/>
<polygon fill="#e4371d" stroke="#e4371d" points="257.898,-30.8154 250.204,-23.0025 253.237,-29.0065 248.576,-27.1977 248.576,-27.1977 248.576,-27.1977 253.237,-29.0065 246.948,-31.3929 257.898,-30.8154 257.898,-30.8154"/>
</g>
<!-- Product -->
<g id="node9" class="node"><title>Product</title>
<ellipse fill="none" stroke="black" cx="200.796" cy="-234" rx="38.9931" ry="18"/>
<text text-anchor="middle" x="200.796" y="-230.3" font-family="Times,serif" font-size="14.00">Product</text>
</g>
<!-- Company&#45;&gt;Product -->
<g id="edge2" class="edge"><title>Company&#45;&gt;Product</title>
<path fill="none" stroke="#5fb8d4" d="M334.627,-306.106C325.908,-300.028 316.097,-293.501 306.796,-288 284.221,-274.648 257.845,-261.451 237.051,-251.566"/>
<ellipse fill="none" stroke="#5fb8d4" cx="338.088" cy="-308.549" rx="4.00002" ry="4.00002"/>
<polygon fill="#5fb8d4" stroke="#5fb8d4" points="236.971,-251.529 229.84,-243.197 232.447,-249.399 227.923,-247.269 227.923,-247.269 227.923,-247.269 232.447,-249.399 226.007,-251.34 236.971,-251.529 236.971,-251.529"/>
</g>
<!-- User -->
<g id="node10" class="node"><title>User</title>
<ellipse fill="none" stroke="black" cx="417.796" cy="-234" rx="27.8951" ry="18"/>
<text text-anchor="middle" x="417.796" y="-230.3" font-family="Times,serif" font-size="14.00">User</text>
</g>
<!-- Company&#45;&gt;User -->
<g id="edge1" class="edge"><title>Company&#45;&gt;User</title>
<path fill="none" stroke="#6b5881" d="M376.402,-302.266C384.479,-289.14 394.501,-272.854 402.661,-259.595"/>
<ellipse fill="none" stroke="#6b5881" cx="374.164" cy="-305.903" rx="4.00002" ry="4.00002"/>
<polygon fill="#6b5881" stroke="#6b5881" points="402.724,-259.491 411.798,-253.333 405.345,-255.233 407.965,-250.975 407.965,-250.975 407.965,-250.975 405.345,-255.233 404.133,-248.616 402.724,-259.491 402.724,-259.491"/>
</g>
<!-- Customer -->
<g id="node3" class="node"><title>Customer</title>
<ellipse fill="none" stroke="black" cx="260.796" cy="-90" rx="46.2923" ry="18"/>
<text text-anchor="middle" x="260.796" y="-86.3" font-family="Times,serif" font-size="14.00">Customer</text>
</g>
<!-- Customer&#45;&gt;Order -->
<g id="edge4" class="edge"><title>Customer&#45;&gt;Order</title>
<path fill="none" stroke="#2bf153" d="M247.018,-64.8894C243.182,-58.1752 239.006,-50.8673 235.138,-44.0979"/>
<ellipse fill="none" stroke="#2bf153" cx="249.128" cy="-68.582" rx="4.00002" ry="4.00002"/>
<polygon fill="#2bf153" stroke="#2bf153" points="235.076,-43.9894 234.021,-33.0744 232.595,-39.6482 230.114,-35.307 230.114,-35.307 230.114,-35.307 232.595,-39.6482 226.207,-37.5396 235.076,-43.9894 235.076,-43.9894"/>
</g>
<!-- Document -->
<g id="node4" class="node"><title>Document</title>
<ellipse fill="none" stroke="black" cx="81.7958" cy="-18" rx="48.9926" ry="18"/>
<text text-anchor="middle" x="81.7958" y="-14.3" font-family="Times,serif" font-size="14.00">Document</text>
</g>
<!-- Instruction -->
<g id="node5" class="node"><title>Instruction</title>
<ellipse fill="none" stroke="black" cx="81.7958" cy="-90" rx="50.0912" ry="18"/>
<text text-anchor="middle" x="81.7958" y="-86.3" font-family="Times,serif" font-size="14.00">Instruction</text>
</g>
<!-- Instruction&#45;&gt;Document -->
<g id="edge5" class="edge"><title>Instruction&#45;&gt;Document</title>
<path fill="none" stroke="#d10991" d="M81.7958,-63.6398C81.7958,-58.0629 81.7958,-52.1319 81.7958,-46.4761"/>
<ellipse fill="none" stroke="#d10991" cx="81.7959" cy="-67.6966" rx="4" ry="4"/>
<polygon fill="#d10991" stroke="#d10991" points="81.7959,-46.1043 86.2958,-36.1043 81.7959,-41.1043 81.7958,-36.1043 81.7958,-36.1043 81.7958,-36.1043 81.7959,-41.1043 77.2958,-36.1044 81.7959,-46.1043 81.7959,-46.1043"/>
</g>
<!-- Instruction&#45;&gt;Order -->
<g id="edge6" class="edge"><title>Instruction&#45;&gt;Order</title>
<path fill="none" stroke="#8b1b03" d="M116.828,-71.3578C138.876,-60.2546 167.12,-46.0308 188.605,-35.2114"/>
<ellipse fill="none" stroke="#8b1b03" cx="113.163" cy="-73.2035" rx="4.00002" ry="4.00002"/>
<polygon fill="#8b1b03" stroke="#8b1b03" points="188.725,-35.1509 199.68,-34.6722 193.191,-32.902 197.656,-30.653 197.656,-30.653 197.656,-30.653 193.191,-32.902 195.632,-26.6339 188.725,-35.1509 188.725,-35.1509"/>
</g>
<!-- Language -->
<g id="node6" class="node"><title>Language</title>
<ellipse fill="none" stroke="black" cx="46.7958" cy="-162" rx="46.5926" ry="18"/>
<text text-anchor="middle" x="46.7958" y="-158.3" font-family="Times,serif" font-size="14.00">Language</text>
</g>
<!-- Language&#45;&gt;Instruction -->
<g id="edge7" class="edge"><title>Language&#45;&gt;Instruction</title>
<path fill="none" stroke="#743804" d="M58.9386,-136.714C62.145,-130.302 65.617,-123.358 68.8635,-116.865"/>
<ellipse fill="none" stroke="#743804" cx="57.0573" cy="-140.477" rx="4.00002" ry="4.00002"/>
<polygon fill="#743804" stroke="#743804" points="68.9292,-116.733 77.4263,-109.801 71.1653,-112.261 73.4013,-107.789 73.4013,-107.789 73.4013,-107.789 71.1653,-112.261 69.3764,-105.777 68.9292,-116.733 68.9292,-116.733"/>
</g>
<!-- Notification -->
<g id="node7" class="node"><title>Notification</title>
<ellipse fill="none" stroke="black" cx="241.796" cy="-162" rx="53.8905" ry="18"/>
<text text-anchor="middle" x="241.796" y="-158.3" font-family="Times,serif" font-size="14.00">Notification</text>
</g>
<!-- Product&#45;&gt;Customer -->
<g id="edge12" class="edge"><title>Product&#45;&gt;Customer</title>
<path fill="none" stroke="#c411c9" d="M243.15,-222.91C265.639,-215.165 291.347,-201.949 304.796,-180 318.308,-157.949 300.867,-131.174 284.115,-112.787"/>
<ellipse fill="none" stroke="#c411c9" cx="239.161" cy="-224.198" rx="4.00001" ry="4.00001"/>
<ellipse fill="#c411c9" stroke="#c411c9" cx="281.263" cy="-109.79" rx="4.00002" ry="4.00002"/>
</g>
<!-- Product&#45;&gt;Instruction -->
<g id="edge8" class="edge"><title>Product&#45;&gt;Instruction</title>
<path fill="none" stroke="#478f8d" d="M177.34,-212.163C167.218,-202.733 155.5,-191.207 145.796,-180 128.13,-159.599 110.399,-134.493 98.0951,-116.153"/>
<ellipse fill="none" stroke="#478f8d" cx="180.46" cy="-215.033" rx="4.00002" ry="4.00002"/>
<polygon fill="#478f8d" stroke="#478f8d" points="98.044,-116.076 96.2645,-105.256 95.2795,-111.91 92.5149,-107.744 92.5149,-107.744 92.5149,-107.744 95.2795,-111.91 88.7653,-110.232 98.044,-116.076 98.044,-116.076"/>
</g>
<!-- Product&#45;&gt;Language -->
<g id="edge10" class="edge"><title>Product&#45;&gt;Language</title>
<path fill="none" stroke="#779988" d="M164.833,-216.653C140.948,-205.796 109.618,-191.556 85.2392,-180.474"/>
<polygon fill="#779988" stroke="#779988" points="164.867,-216.669 172.109,-224.904 169.419,-218.738 173.971,-220.807 173.971,-220.807 173.971,-220.807 169.419,-218.738 175.833,-216.71 164.867,-216.669 164.867,-216.669"/>
<polygon fill="#779988" stroke="#779988" points="85.0355,-180.382 77.7939,-172.147 80.4836,-178.313 75.9318,-176.244 75.9318,-176.244 75.9318,-176.244 80.4836,-178.313 74.0697,-180.34 85.0355,-180.382 85.0355,-180.382"/>
</g>
<!-- Product&#45;&gt;Notification -->
<g id="edge9" class="edge"><title>Product&#45;&gt;Notification</title>
<path fill="none" stroke="#3f34ab" d="M214.65,-209.346C218.532,-202.719 222.77,-195.483 226.719,-188.74"/>
<ellipse fill="none" stroke="#3f34ab" cx="212.534" cy="-212.959" rx="4.00002" ry="4.00002"/>
<polygon fill="#3f34ab" stroke="#3f34ab" points="226.81,-188.585 235.747,-182.231 229.337,-184.271 231.864,-179.956 231.864,-179.956 231.864,-179.956 229.337,-184.271 227.981,-177.682 226.81,-188.585 226.81,-188.585"/>
</g>
<!-- Product&#45;&gt;Order -->
<g id="edge11" class="edge"><title>Product&#45;&gt;Order</title>
<path fill="none" stroke="#6ba792" d="M187.65,-207.071C184.037,-198.655 180.615,-189.129 178.796,-180 169.125,-131.477 191.196,-75.8122 206.864,-44.284"/>
<polygon fill="#6ba792" stroke="#6ba792" points="187.735,-207.257 187.801,-218.223 189.814,-211.805 191.893,-216.352 191.893,-216.352 191.893,-216.352 189.814,-211.805 195.986,-214.481 187.735,-207.257 187.735,-207.257"/>
<polygon fill="#6ba792" stroke="#6ba792" points="206.906,-44.2023 215.48,-37.3665 209.192,-39.7556 211.478,-35.3089 211.478,-35.3089 211.478,-35.3089 209.192,-39.7556 207.476,-33.2513 206.906,-44.2023 206.906,-44.2023"/>
</g>
</g>
</svg>
