<?xml version="1.0" encoding="UTF-8" standalone="no"?>
<!DOCTYPE svg PUBLIC "-//W3C//DTD SVG 1.1//EN"
 "http://www.w3.org/Graphics/SVG/1.1/DTD/svg11.dtd">
<!-- Generated by graphviz version 2.38.0 (20140413.2041)
 -->
<!-- Title: models_diagram Pages: 1 -->
<svg width="688pt" height="1467pt"
 viewBox="0.00 0.00 687.50 1467.00" xmlns="http://www.w3.org/2000/svg" xmlns:xlink="http://www.w3.org/1999/xlink">
<g id="graph0" class="graph" transform="scale(1 1) rotate(0) translate(4 1463)">
<title>models_diagram</title>
<polygon fill="none" stroke="none" points="-4,4 -4,-1463 683.5,-1463 683.5,4 -4,4"/>
<!-- _diagram_info -->
<g id="node1" class="node"><title>_diagram_info</title>
<text text-anchor="start" x="145" y="-1370.1" font-family="Times,serif" font-size="13.00">Models diagram</text>
<text text-anchor="start" x="145" y="-1356.1" font-family="Times,serif" font-size="13.00">Date: Sep 06 2015 &#45; 13:57</text>
<text text-anchor="start" x="145" y="-1342.1" font-family="Times,serif" font-size="13.00">Migration version: 20150508092603</text>
<text text-anchor="start" x="145" y="-1328.1" font-family="Times,serif" font-size="13.00">Generated by RailRoady 1.3.1</text>
<text text-anchor="start" x="145" y="-1314.1" font-family="Times,serif" font-size="13.00">http://railroady.prestonlee.com</text>
</g>
<!-- Company -->
<g id="node2" class="node"><title>Company</title>
<path fill="none" stroke="black" d="M375.5,-1232.5C375.5,-1232.5 516.5,-1232.5 516.5,-1232.5 522.5,-1232.5 528.5,-1238.5 528.5,-1244.5 528.5,-1244.5 528.5,-1446.5 528.5,-1446.5 528.5,-1452.5 522.5,-1458.5 516.5,-1458.5 516.5,-1458.5 375.5,-1458.5 375.5,-1458.5 369.5,-1458.5 363.5,-1452.5 363.5,-1446.5 363.5,-1446.5 363.5,-1244.5 363.5,-1244.5 363.5,-1238.5 369.5,-1232.5 375.5,-1232.5"/>
<text text-anchor="middle" x="446" y="-1443.3" font-family="Times,serif" font-size="14.00">Company</text>
<polyline fill="none" stroke="black" points="363.5,-1435.5 528.5,-1435.5 "/>
<text text-anchor="start" x="371.5" y="-1420.3" font-family="Times,serif" font-size="14.00">id :integer</text>
<text text-anchor="start" x="371.5" y="-1405.3" font-family="Times,serif" font-size="14.00">name :string</text>
<text text-anchor="start" x="371.5" y="-1390.3" font-family="Times,serif" font-size="14.00">symbol :string</text>
<text text-anchor="start" x="371.5" y="-1375.3" font-family="Times,serif" font-size="14.00">website :string</text>
<text text-anchor="start" x="371.5" y="-1360.3" font-family="Times,serif" font-size="14.00">contact :string</text>
<text text-anchor="start" x="371.5" y="-1345.3" font-family="Times,serif" font-size="14.00">order_email :string</text>
<text text-anchor="start" x="371.5" y="-1330.3" font-family="Times,serif" font-size="14.00">created_at :datetime</text>
<text text-anchor="start" x="371.5" y="-1315.3" font-family="Times,serif" font-size="14.00">updated_at :datetime</text>
<text text-anchor="start" x="371.5" y="-1300.3" font-family="Times,serif" font-size="14.00">published :boolean</text>
<text text-anchor="start" x="371.5" y="-1285.3" font-family="Times,serif" font-size="14.00">logo_file_name :string</text>
<text text-anchor="start" x="371.5" y="-1270.3" font-family="Times,serif" font-size="14.00">logo_content_type :string</text>
<text text-anchor="start" x="371.5" y="-1255.3" font-family="Times,serif" font-size="14.00">logo_file_size :integer</text>
<text text-anchor="start" x="371.5" y="-1240.3" font-family="Times,serif" font-size="14.00">logo_updated_at :datetime</text>
</g>
<!-- Order -->
<g id="node8" class="node"><title>Order</title>
<path fill="none" stroke="black" d="M234.5,-0.5C234.5,-0.5 351.5,-0.5 351.5,-0.5 357.5,-0.5 363.5,-6.5 363.5,-12.5 363.5,-12.5 363.5,-169.5 363.5,-169.5 363.5,-175.5 357.5,-181.5 351.5,-181.5 351.5,-181.5 234.5,-181.5 234.5,-181.5 228.5,-181.5 222.5,-175.5 222.5,-169.5 222.5,-169.5 222.5,-12.5 222.5,-12.5 222.5,-6.5 228.5,-0.5 234.5,-0.5"/>
<text text-anchor="middle" x="293" y="-166.3" font-family="Times,serif" font-size="14.00">Order</text>
<polyline fill="none" stroke="black" points="222.5,-158.5 363.5,-158.5 "/>
<text text-anchor="start" x="230.5" y="-143.3" font-family="Times,serif" font-size="14.00">id :integer</text>
<text text-anchor="start" x="230.5" y="-128.3" font-family="Times,serif" font-size="14.00">instruction_id :integer</text>
<text text-anchor="start" x="230.5" y="-113.3" font-family="Times,serif" font-size="14.00">customer_id :integer</text>
<text text-anchor="start" x="230.5" y="-98.3" font-family="Times,serif" font-size="14.00">created_at :datetime</text>
<text text-anchor="start" x="230.5" y="-83.3" font-family="Times,serif" font-size="14.00">updated_at :datetime</text>
<text text-anchor="start" x="230.5" y="-68.3" font-family="Times,serif" font-size="14.00">code :string</text>
<text text-anchor="start" x="230.5" y="-53.3" font-family="Times,serif" font-size="14.00">reviewed :boolean</text>
<text text-anchor="start" x="230.5" y="-38.3" font-family="Times,serif" font-size="14.00">token :string</text>
<text text-anchor="start" x="230.5" y="-23.3" font-family="Times,serif" font-size="14.00">status :integer</text>
<text text-anchor="start" x="230.5" y="-8.3" font-family="Times,serif" font-size="14.00">track :string</text>
</g>
<!-- Company&#45;&gt;Order -->
<g id="edge3" class="edge"><title>Company&#45;&gt;Order</title>
<path fill="none" stroke="#ec91d4" d="M449.285,-1221.95C455.835,-948.964 466.7,-307.738 427,-218 414.865,-190.571 393.597,-166.308 371.53,-146.58"/>
<polygon fill="#ec91d4" stroke="#ec91d4" points="449.276,-1222.3 444.535,-1232.19 449.155,-1227.3 449.034,-1232.3 449.034,-1232.3 449.034,-1232.3 449.155,-1227.3 453.533,-1232.41 449.276,-1222.3 449.276,-1222.3"/>
<polygon fill="#ec91d4" stroke="#ec91d4" points="371.26,-146.345 366.654,-136.394 367.483,-143.069 363.706,-139.793 363.706,-139.793 363.706,-139.793 367.483,-143.069 360.757,-143.193 371.26,-146.345 371.26,-146.345"/>
</g>
<!-- Product -->
<g id="node9" class="node"><title>Product</title>
<path fill="none" stroke="black" d="M155.5,-842C155.5,-842 338.5,-842 338.5,-842 344.5,-842 350.5,-848 350.5,-854 350.5,-854 350.5,-1086 350.5,-1086 350.5,-1092 344.5,-1098 338.5,-1098 338.5,-1098 155.5,-1098 155.5,-1098 149.5,-1098 143.5,-1092 143.5,-1086 143.5,-1086 143.5,-854 143.5,-854 143.5,-848 149.5,-842 155.5,-842"/>
<text text-anchor="middle" x="247" y="-1082.8" font-family="Times,serif" font-size="14.00">Product</text>
<polyline fill="none" stroke="black" points="143.5,-1075 350.5,-1075 "/>
<text text-anchor="start" x="151.5" y="-1059.8" font-family="Times,serif" font-size="14.00">id :integer</text>
<text text-anchor="start" x="151.5" y="-1044.8" font-family="Times,serif" font-size="14.00">name :string</text>
<text text-anchor="start" x="151.5" y="-1029.8" font-family="Times,serif" font-size="14.00">uuid :string</text>
<text text-anchor="start" x="151.5" y="-1014.8" font-family="Times,serif" font-size="14.00">published :boolean</text>
<text text-anchor="start" x="151.5" y="-999.8" font-family="Times,serif" font-size="14.00">company_id :integer</text>
<text text-anchor="start" x="151.5" y="-984.8" font-family="Times,serif" font-size="14.00">created_at :datetime</text>
<text text-anchor="start" x="151.5" y="-969.8" font-family="Times,serif" font-size="14.00">updated_at :datetime</text>
<text text-anchor="start" x="151.5" y="-954.8" font-family="Times,serif" font-size="14.00">qrcode_svg_file_name :string</text>
<text text-anchor="start" x="151.5" y="-939.8" font-family="Times,serif" font-size="14.00">qrcode_svg_content_type :string</text>
<text text-anchor="start" x="151.5" y="-924.8" font-family="Times,serif" font-size="14.00">qrcode_svg_file_size :integer</text>
<text text-anchor="start" x="151.5" y="-909.8" font-family="Times,serif" font-size="14.00">qrcode_svg_updated_at :datetime</text>
<text text-anchor="start" x="151.5" y="-894.8" font-family="Times,serif" font-size="14.00">qrcode_png_file_name :string</text>
<text text-anchor="start" x="151.5" y="-879.8" font-family="Times,serif" font-size="14.00">qrcode_png_content_type :string</text>
<text text-anchor="start" x="151.5" y="-864.8" font-family="Times,serif" font-size="14.00">qrcode_png_file_size :integer</text>
<text text-anchor="start" x="151.5" y="-849.8" font-family="Times,serif" font-size="14.00">qrcode_png_updated_at :datetime</text>
</g>
<!-- Company&#45;&gt;Product -->
<g id="edge2" class="edge"><title>Company&#45;&gt;Product</title>
<path fill="none" stroke="#c1393b" d="M382.431,-1225.19C362.427,-1187.64 340.185,-1145.9 319.603,-1107.27"/>
<ellipse fill="none" stroke="#c1393b" cx="384.413" cy="-1228.91" rx="4.00002" ry="4.00002"/>
<polygon fill="#c1393b" stroke="#c1393b" points="319.389,-1106.87 318.658,-1095.92 317.038,-1102.45 314.687,-1098.04 314.687,-1098.04 314.687,-1098.04 317.038,-1102.45 310.715,-1100.16 319.389,-1106.87 319.389,-1106.87"/>
</g>
<!-- User -->
<g id="node10" class="node"><title>User</title>
<path fill="none" stroke="black" d="M486.5,-744.5C486.5,-744.5 667.5,-744.5 667.5,-744.5 673.5,-744.5 679.5,-750.5 679.5,-756.5 679.5,-756.5 679.5,-1183.5 679.5,-1183.5 679.5,-1189.5 673.5,-1195.5 667.5,-1195.5 667.5,-1195.5 486.5,-1195.5 486.5,-1195.5 480.5,-1195.5 474.5,-1189.5 474.5,-1183.5 474.5,-1183.5 474.5,-756.5 474.5,-756.5 474.5,-750.5 480.5,-744.5 486.5,-744.5"/>
<text text-anchor="middle" x="577" y="-1180.3" font-family="Times,serif" font-size="14.00">User</text>
<polyline fill="none" stroke="black" points="474.5,-1172.5 679.5,-1172.5 "/>
<text text-anchor="start" x="482.5" y="-1157.3" font-family="Times,serif" font-size="14.00">id :integer</text>
<text text-anchor="start" x="482.5" y="-1142.3" font-family="Times,serif" font-size="14.00">email :string</text>
<text text-anchor="start" x="482.5" y="-1127.3" font-family="Times,serif" font-size="14.00">encrypted_password :string</text>
<text text-anchor="start" x="482.5" y="-1112.3" font-family="Times,serif" font-size="14.00">reset_password_token :string</text>
<text text-anchor="start" x="482.5" y="-1097.3" font-family="Times,serif" font-size="14.00">reset_password_sent_at :datetime</text>
<text text-anchor="start" x="482.5" y="-1082.3" font-family="Times,serif" font-size="14.00">remember_created_at :datetime</text>
<text text-anchor="start" x="482.5" y="-1067.3" font-family="Times,serif" font-size="14.00">sign_in_count :integer</text>
<text text-anchor="start" x="482.5" y="-1052.3" font-family="Times,serif" font-size="14.00">current_sign_in_at :datetime</text>
<text text-anchor="start" x="482.5" y="-1037.3" font-family="Times,serif" font-size="14.00">last_sign_in_at :datetime</text>
<text text-anchor="start" x="482.5" y="-1022.3" font-family="Times,serif" font-size="14.00">current_sign_in_ip :string</text>
<text text-anchor="start" x="482.5" y="-1007.3" font-family="Times,serif" font-size="14.00">last_sign_in_ip :string</text>
<text text-anchor="start" x="482.5" y="-992.3" font-family="Times,serif" font-size="14.00">created_at :datetime</text>
<text text-anchor="start" x="482.5" y="-977.3" font-family="Times,serif" font-size="14.00">updated_at :datetime</text>
<text text-anchor="start" x="482.5" y="-962.3" font-family="Times,serif" font-size="14.00">name :string</text>
<text text-anchor="start" x="482.5" y="-947.3" font-family="Times,serif" font-size="14.00">confirmation_token :string</text>
<text text-anchor="start" x="482.5" y="-932.3" font-family="Times,serif" font-size="14.00">confirmed_at :datetime</text>
<text text-anchor="start" x="482.5" y="-917.3" font-family="Times,serif" font-size="14.00">confirmation_sent_at :datetime</text>
<text text-anchor="start" x="482.5" y="-902.3" font-family="Times,serif" font-size="14.00">unconfirmed_email :string</text>
<text text-anchor="start" x="482.5" y="-887.3" font-family="Times,serif" font-size="14.00">role :integer</text>
<text text-anchor="start" x="482.5" y="-872.3" font-family="Times,serif" font-size="14.00">invitation_token :string</text>
<text text-anchor="start" x="482.5" y="-857.3" font-family="Times,serif" font-size="14.00">invitation_created_at :datetime</text>
<text text-anchor="start" x="482.5" y="-842.3" font-family="Times,serif" font-size="14.00">invitation_sent_at :datetime</text>
<text text-anchor="start" x="482.5" y="-827.3" font-family="Times,serif" font-size="14.00">invitation_accepted_at :datetime</text>
<text text-anchor="start" x="482.5" y="-812.3" font-family="Times,serif" font-size="14.00">invitation_limit :integer</text>
<text text-anchor="start" x="482.5" y="-797.3" font-family="Times,serif" font-size="14.00">invited_by_id :integer</text>
<text text-anchor="start" x="482.5" y="-782.3" font-family="Times,serif" font-size="14.00">invited_by_type :string</text>
<text text-anchor="start" x="482.5" y="-767.3" font-family="Times,serif" font-size="14.00">invitations_count :integer</text>
<text text-anchor="start" x="482.5" y="-752.3" font-family="Times,serif" font-size="14.00">company_id :integer</text>
</g>
<!-- Company&#45;&gt;User -->
<g id="edge1" class="edge"><title>Company&#45;&gt;User</title>
<path fill="none" stroke="#5aaff5" d="M488.048,-1224.62C490.26,-1218.31 492.513,-1211.88 494.795,-1205.38"/>
<ellipse fill="none" stroke="#5aaff5" cx="486.628" cy="-1228.66" rx="4.00001" ry="4.00001"/>
<polygon fill="#5aaff5" stroke="#5aaff5" points="494.849,-1205.23 502.405,-1197.28 496.504,-1200.51 498.158,-1195.79 498.158,-1195.79 498.158,-1195.79 496.504,-1200.51 493.912,-1194.3 494.849,-1205.23 494.849,-1205.23"/>
</g>
<!-- Customer -->
<g id="node3" class="node"><title>Customer</title>
<path fill="none" stroke="black" d="M240.5,-218.5C240.5,-218.5 405.5,-218.5 405.5,-218.5 411.5,-218.5 417.5,-224.5 417.5,-230.5 417.5,-230.5 417.5,-507.5 417.5,-507.5 417.5,-513.5 411.5,-519.5 405.5,-519.5 405.5,-519.5 240.5,-519.5 240.5,-519.5 234.5,-519.5 228.5,-513.5 228.5,-507.5 228.5,-507.5 228.5,-230.5 228.5,-230.5 228.5,-224.5 234.5,-218.5 240.5,-218.5"/>
<text text-anchor="middle" x="323" y="-504.3" font-family="Times,serif" font-size="14.00">Customer</text>
<polyline fill="none" stroke="black" points="228.5,-496.5 417.5,-496.5 "/>
<text text-anchor="start" x="236.5" y="-481.3" font-family="Times,serif" font-size="14.00">id :integer</text>
<text text-anchor="start" x="236.5" y="-466.3" font-family="Times,serif" font-size="14.00">full_name :string</text>
<text text-anchor="start" x="236.5" y="-451.3" font-family="Times,serif" font-size="14.00">company :string</text>
<text text-anchor="start" x="236.5" y="-436.3" font-family="Times,serif" font-size="14.00">address1 :string</text>
<text text-anchor="start" x="236.5" y="-421.3" font-family="Times,serif" font-size="14.00">address2 :string</text>
<text text-anchor="start" x="236.5" y="-406.3" font-family="Times,serif" font-size="14.00">postcode :string</text>
<text text-anchor="start" x="236.5" y="-391.3" font-family="Times,serif" font-size="14.00">city :string</text>
<text text-anchor="start" x="236.5" y="-376.3" font-family="Times,serif" font-size="14.00">country :string</text>
<text text-anchor="start" x="236.5" y="-361.3" font-family="Times,serif" font-size="14.00">notes :text</text>
<text text-anchor="start" x="236.5" y="-346.3" font-family="Times,serif" font-size="14.00">telephone :string</text>
<text text-anchor="start" x="236.5" y="-331.3" font-family="Times,serif" font-size="14.00">email :string</text>
<text text-anchor="start" x="236.5" y="-316.3" font-family="Times,serif" font-size="14.00">created_at :datetime</text>
<text text-anchor="start" x="236.5" y="-301.3" font-family="Times,serif" font-size="14.00">updated_at :datetime</text>
<text text-anchor="start" x="236.5" y="-286.3" font-family="Times,serif" font-size="14.00">reason :string</text>
<text text-anchor="start" x="236.5" y="-271.3" font-family="Times,serif" font-size="14.00">status :string</text>
<text text-anchor="start" x="236.5" y="-256.3" font-family="Times,serif" font-size="14.00">email_confirmation :string</text>
<text text-anchor="start" x="236.5" y="-241.3" font-family="Times,serif" font-size="14.00">telephone_confirmation :string</text>
<text text-anchor="start" x="236.5" y="-226.3" font-family="Times,serif" font-size="14.00">product_id :integer</text>
</g>
<!-- Customer&#45;&gt;Order -->
<g id="edge4" class="edge"><title>Customer&#45;&gt;Order</title>
<path fill="none" stroke="#567437" d="M305.844,-210.16C305.172,-203.983 304.506,-197.859 303.852,-191.84"/>
<ellipse fill="none" stroke="#567437" cx="306.295" cy="-214.311" rx="4.00001" ry="4.00001"/>
<polygon fill="#567437" stroke="#567437" points="303.844,-191.761 307.237,-181.333 303.303,-186.79 302.763,-181.819 302.763,-181.819 302.763,-181.819 303.303,-186.79 298.289,-182.306 303.844,-191.761 303.844,-191.761"/>
</g>
<!-- Document -->
<g id="node4" class="node"><title>Document</title>
<path fill="none" stroke="black" d="M46.5,-15.5C46.5,-15.5 163.5,-15.5 163.5,-15.5 169.5,-15.5 175.5,-21.5 175.5,-27.5 175.5,-27.5 175.5,-154.5 175.5,-154.5 175.5,-160.5 169.5,-166.5 163.5,-166.5 163.5,-166.5 46.5,-166.5 46.5,-166.5 40.5,-166.5 34.5,-160.5 34.5,-154.5 34.5,-154.5 34.5,-27.5 34.5,-27.5 34.5,-21.5 40.5,-15.5 46.5,-15.5"/>
<text text-anchor="middle" x="105" y="-151.3" font-family="Times,serif" font-size="14.00">Document</text>
<polyline fill="none" stroke="black" points="34.5,-143.5 175.5,-143.5 "/>
<text text-anchor="start" x="42.5" y="-128.3" font-family="Times,serif" font-size="14.00">id :integer</text>
<text text-anchor="start" x="42.5" y="-113.3" font-family="Times,serif" font-size="14.00">comment :string</text>
<text text-anchor="start" x="42.5" y="-98.3" font-family="Times,serif" font-size="14.00">file :string</text>
<text text-anchor="start" x="42.5" y="-83.3" font-family="Times,serif" font-size="14.00">version :string</text>
<text text-anchor="start" x="42.5" y="-68.3" font-family="Times,serif" font-size="14.00">created_at :datetime</text>
<text text-anchor="start" x="42.5" y="-53.3" font-family="Times,serif" font-size="14.00">updated_at :datetime</text>
<text text-anchor="start" x="42.5" y="-38.3" font-family="Times,serif" font-size="14.00">instruction_id :integer</text>
<text text-anchor="start" x="42.5" y="-23.3" font-family="Times,serif" font-size="14.00">primary :boolean</text>
</g>
<!-- Instruction -->
<g id="node5" class="node"><title>Instruction</title>
<path fill="none" stroke="black" d="M50,-308.5C50,-308.5 160,-308.5 160,-308.5 166,-308.5 172,-314.5 172,-320.5 172,-320.5 172,-417.5 172,-417.5 172,-423.5 166,-429.5 160,-429.5 160,-429.5 50,-429.5 50,-429.5 44,-429.5 38,-423.5 38,-417.5 38,-417.5 38,-320.5 38,-320.5 38,-314.5 44,-308.5 50,-308.5"/>
<text text-anchor="middle" x="105" y="-414.3" font-family="Times,serif" font-size="14.00">Instruction</text>
<polyline fill="none" stroke="black" points="38,-406.5 172,-406.5 "/>
<text text-anchor="start" x="46" y="-391.3" font-family="Times,serif" font-size="14.00">id :integer</text>
<text text-anchor="start" x="46" y="-376.3" font-family="Times,serif" font-size="14.00">product_id :integer</text>
<text text-anchor="start" x="46" y="-361.3" font-family="Times,serif" font-size="14.00">language_id :integer</text>
<text text-anchor="start" x="46" y="-346.3" font-family="Times,serif" font-size="14.00">created_at :datetime</text>
<text text-anchor="start" x="46" y="-331.3" font-family="Times,serif" font-size="14.00">updated_at :datetime</text>
<text text-anchor="start" x="46" y="-316.3" font-family="Times,serif" font-size="14.00">published :boolean</text>
</g>
<!-- Instruction&#45;&gt;Document -->
<g id="edge5" class="edge"><title>Instruction&#45;&gt;Document</title>
<path fill="none" stroke="#581191" d="M105,-300.254C105,-263.038 105,-216.526 105,-176.905"/>
<ellipse fill="none" stroke="#581191" cx="105" cy="-304.452" rx="4" ry="4"/>
<polygon fill="#581191" stroke="#581191" points="105,-176.725 109.5,-166.725 105,-171.725 105,-166.725 105,-166.725 105,-166.725 105,-171.725 100.5,-166.725 105,-176.725 105,-176.725"/>
</g>
<!-- Instruction&#45;&gt;Order -->
<g id="edge6" class="edge"><title>Instruction&#45;&gt;Order</title>
<path fill="none" stroke="#43992b" d="M137.415,-300.896C151.211,-274.346 168.215,-244.019 186,-218 195.12,-204.658 205.404,-191.089 215.901,-178.038"/>
<ellipse fill="none" stroke="#43992b" cx="135.443" cy="-304.721" rx="4.00002" ry="4.00002"/>
<polygon fill="#43992b" stroke="#43992b" points="216.142,-177.742 225.945,-172.827 219.298,-173.864 222.455,-169.986 222.455,-169.986 222.455,-169.986 219.298,-173.864 218.965,-167.146 216.142,-177.742 216.142,-177.742"/>
</g>
<!-- Language -->
<g id="node6" class="node"><title>Language</title>
<path fill="none" stroke="black" d="M12,-579C12,-579 122,-579 122,-579 128,-579 134,-585 134,-591 134,-591 134,-673 134,-673 134,-679 128,-685 122,-685 122,-685 12,-685 12,-685 6,-685 0,-679 0,-673 0,-673 0,-591 0,-591 0,-585 6,-579 12,-579"/>
<text text-anchor="middle" x="67" y="-669.8" font-family="Times,serif" font-size="14.00">Language</text>
<polyline fill="none" stroke="black" points="0,-662 134,-662 "/>
<text text-anchor="start" x="8" y="-646.8" font-family="Times,serif" font-size="14.00">id :integer</text>
<text text-anchor="start" x="8" y="-631.8" font-family="Times,serif" font-size="14.00">name :string</text>
<text text-anchor="start" x="8" y="-616.8" font-family="Times,serif" font-size="14.00">created_at :datetime</text>
<text text-anchor="start" x="8" y="-601.8" font-family="Times,serif" font-size="14.00">updated_at :datetime</text>
<text text-anchor="start" x="8" y="-586.8" font-family="Times,serif" font-size="14.00">local :string</text>
</g>
<!-- Language&#45;&gt;Instruction -->
<g id="edge7" class="edge"><title>Language&#45;&gt;Instruction</title>
<path fill="none" stroke="#744740" d="M75.7632,-570.811C81.4433,-531.797 88.8635,-480.832 94.8071,-440.009"/>
<ellipse fill="none" stroke="#744740" cx="75.1749" cy="-574.852" rx="4.00001" ry="4.00001"/>
<polygon fill="#744740" stroke="#744740" points="94.8436,-439.758 100.738,-430.51 95.564,-434.81 96.2845,-429.862 96.2845,-429.862 96.2845,-429.862 95.564,-434.81 91.8314,-429.214 94.8436,-439.758 94.8436,-439.758"/>
</g>
<!-- Notification -->
<g id="node7" class="node"><title>Notification</title>
<path fill="none" stroke="black" d="M240,-556.5C240,-556.5 350,-556.5 350,-556.5 356,-556.5 362,-562.5 362,-568.5 362,-568.5 362,-695.5 362,-695.5 362,-701.5 356,-707.5 350,-707.5 350,-707.5 240,-707.5 240,-707.5 234,-707.5 228,-701.5 228,-695.5 228,-695.5 228,-568.5 228,-568.5 228,-562.5 234,-556.5 240,-556.5"/>
<text text-anchor="middle" x="295" y="-692.3" font-family="Times,serif" font-size="14.00">Notification</text>
<polyline fill="none" stroke="black" points="228,-684.5 362,-684.5 "/>
<text text-anchor="start" x="236" y="-669.3" font-family="Times,serif" font-size="14.00">id :integer</text>
<text text-anchor="start" x="236" y="-654.3" font-family="Times,serif" font-size="14.00">content :string</text>
<text text-anchor="start" x="236" y="-639.3" font-family="Times,serif" font-size="14.00">category :integer</text>
<text text-anchor="start" x="236" y="-624.3" font-family="Times,serif" font-size="14.00">product_id :integer</text>
<text text-anchor="start" x="236" y="-609.3" font-family="Times,serif" font-size="14.00">expiration :date</text>
<text text-anchor="start" x="236" y="-594.3" font-family="Times,serif" font-size="14.00">published :boolean</text>
<text text-anchor="start" x="236" y="-579.3" font-family="Times,serif" font-size="14.00">created_at :datetime</text>
<text text-anchor="start" x="236" y="-564.3" font-family="Times,serif" font-size="14.00">updated_at :datetime</text>
</g>
<!-- Product&#45;&gt;Customer -->
<g id="edge12" class="edge"><title>Product&#45;&gt;Customer</title>
<path fill="none" stroke="#30b9f3" d="M324.71,-834.671C343.689,-795.149 361.314,-750.961 371,-708 384.135,-649.742 379.495,-584.982 369.036,-527.864"/>
<ellipse fill="none" stroke="#30b9f3" cx="322.9" cy="-838.397" rx="4.00002" ry="4.00002"/>
<ellipse fill="#30b9f3" stroke="#30b9f3" cx="368.266" cy="-523.787" rx="4.00001" ry="4.00001"/>
</g>
<!-- Product&#45;&gt;Instruction -->
<g id="edge8" class="edge"><title>Product&#45;&gt;Instruction</title>
<path fill="none" stroke="#e29a4c" d="M215.016,-834.083C185.997,-711.671 144.366,-536.057 121.537,-439.76"/>
<ellipse fill="none" stroke="#e29a4c" cx="215.963" cy="-838.075" rx="4.00001" ry="4.00001"/>
<polygon fill="#e29a4c" stroke="#e29a4c" points="121.493,-439.57 123.564,-428.802 120.339,-434.705 119.186,-429.84 119.186,-429.84 119.186,-429.84 120.339,-434.705 114.807,-430.878 121.493,-439.57 121.493,-439.57"/>
</g>
<!-- Product&#45;&gt;Language -->
<g id="edge10" class="edge"><title>Product&#45;&gt;Language</title>
<path fill="none" stroke="#d7cbe4" d="M174.137,-832.989C148.33,-784.816 120.571,-732.999 99.776,-694.182"/>
<polygon fill="#d7cbe4" stroke="#d7cbe4" points="174.227,-833.158 174.983,-844.098 176.589,-837.565 178.95,-841.973 178.95,-841.973 178.95,-841.973 176.589,-837.565 182.916,-839.848 174.227,-833.158 174.227,-833.158"/>
<polygon fill="#d7cbe4" stroke="#d7cbe4" points="99.6359,-693.92 98.8803,-682.98 97.2748,-689.513 94.9136,-685.105 94.9136,-685.105 94.9136,-685.105 97.2748,-689.513 90.947,-687.23 99.6359,-693.92 99.6359,-693.92"/>
</g>
<!-- Product&#45;&gt;Notification -->
<g id="edge9" class="edge"><title>Product&#45;&gt;Notification</title>
<path fill="none" stroke="#bbbae4" d="M266.291,-833.961C271.896,-794.725 277.858,-752.992 282.888,-717.783"/>
<ellipse fill="none" stroke="#bbbae4" cx="265.712" cy="-838.013" rx="4.00001" ry="4.00001"/>
<polygon fill="#bbbae4" stroke="#bbbae4" points="282.935,-717.456 288.804,-708.193 283.642,-712.506 284.349,-707.556 284.349,-707.556 284.349,-707.556 283.642,-712.506 279.894,-706.92 282.935,-717.456 282.935,-717.456"/>
</g>
<!-- Product&#45;&gt;Order -->
<g id="edge11" class="edge"><title>Product&#45;&gt;Order</title>
<path fill="none" stroke="#777640" d="M218.132,-831.918C191.44,-679.221 163.652,-426.428 220,-218 222.448,-208.943 225.721,-199.865 229.527,-190.961"/>
<polygon fill="#777640" stroke="#777640" points="218.143,-831.983 215.456,-842.614 219.015,-836.906 219.888,-841.829 219.888,-841.829 219.888,-841.829 219.015,-836.906 224.319,-841.044 218.143,-831.983 218.143,-831.983"/>
<polygon fill="#777640" stroke="#777640" points="229.567,-190.871 237.778,-183.602 231.621,-186.313 233.675,-181.754 233.675,-181.754 233.675,-181.754 231.621,-186.313 229.572,-179.906 229.567,-190.871 229.567,-190.871"/>
</g>
</g>
</svg>
